
<svg width="16" height="16" viewBox="0 0 16 16" fill="none" xmlns="http://www.w3.org/2000/svg">
<g clip-path="url(#clip0_10033_732)">
<path opacity="0.2" d="M3.49998 7C3.49998 5.80653 3.97409 4.66193 4.818 3.81802C5.66192 2.97411 6.80651 2.5 7.99998 2.5C9.19346 2.5 10.338 2.97411 11.182 3.81802C12.0259 4.66193 12.5 5.80653 12.5 7C12.5 9.23875 13.0187 10.5375 13.4312 11.25C13.475 11.3259 13.4981 11.4119 13.4982 11.4996C13.4983 11.5872 13.4754 11.6733 13.4317 11.7492C13.388 11.8252 13.3251 11.8883 13.2494 11.9324C13.1736 11.9764 13.0876 11.9997 13 12H2.99998C2.91247 11.9995 2.82663 11.976 2.75104 11.9319C2.67545 11.8878 2.61275 11.8246 2.56923 11.7487C2.5257 11.6728 2.50286 11.5868 2.50299 11.4992C2.50312 11.4117 2.52622 11.3258 2.56998 11.25C2.98186 10.5375 3.49998 9.23812 3.49998 7Z" fill="#36394A"/>
<path d="M6 12C6 12.5304 6.21071 13.0391 6.58579 13.4142C6.96086 13.7893 7.46957 14 8 14C8.53043 14 9.03914 13.7893 9.41421 13.4142C9.78929 13.0391 10 12.5304 10 12" stroke="#36394A" stroke-linecap="round" stroke-linejoin="round"/>
<path d="M11.5 1.5C12.4655 2.11607 13.2486 2.97925 13.7681 4" stroke="#36394A" stroke-linecap="round" stroke-linejoin="round"/>
<path d="M2.23187 4C2.75135 2.97925 3.53447 2.11607 4.5 1.5" stroke="#36394A" stroke-linecap="round" stroke-linejoin="round"/>
<path d="M3.49998 7C3.49998 5.80653 3.97409 4.66193 4.818 3.81802C5.66192 2.97411 6.80651 2.5 7.99998 2.5C9.19346 2.5 10.338 2.97411 11.182 3.81802C12.0259 4.66193 12.5 5.80653 12.5 7C12.5 9.23875 13.0187 10.5375 13.4312 11.25C13.475 11.3259 13.4981 11.4119 13.4982 11.4996C13.4983 11.5872 13.4754 11.6733 13.4317 11.7492C13.388 11.8252 13.3251 11.8883 13.2494 11.9324C13.1736 11.9764 13.0876 11.9997 13 12H2.99998C2.91247 11.9995 2.82663 11.976 2.75104 11.9319C2.67545 11.8878 2.61275 11.8246 2.56923 11.7487C2.5257 11.6728 2.50286 11.5868 2.50299 11.4992C2.50312 11.4117 2.52622 11.3258 2.56998 11.25C2.98186 10.5375 3.49998 9.23813 3.49998 7Z" stroke="#36394A" stroke-linecap="round" stroke-linejoin="round"/>
</g>
<defs>
<clipPath id="clip0_10033_732">
<rect width="16" height="16" fill="white"/>
</clipPath>
</defs>
</svg>
