
<svg width="16" height="16" viewBox="0 0 16 16" fill="none" xmlns="http://www.w3.org/2000/svg">
<g clip-path="url(#clip0_10025_403)">
<path opacity="0.2" d="M8 14C11.0376 14 13.5 11.5376 13.5 8.5C13.5 5.46243 11.0376 3 8 3C4.96243 3 2.5 5.46243 2.5 8.5C2.5 11.5376 4.96243 14 8 14Z" fill="#CA8F43"/>
<path d="M8 14C11.0376 14 13.5 11.5376 13.5 8.5C13.5 5.46243 11.0376 3 8 3C4.96243 3 2.5 5.46243 2.5 8.5C2.5 11.5376 4.96243 14 8 14Z" stroke="#CA8F43" stroke-linecap="round" stroke-linejoin="round"/>
<path d="M8 8.5L10.5 6" stroke="#CA8F43" stroke-linecap="round" stroke-linejoin="round"/>
<path d="M6.5 1H9.5" stroke="#CA8F43" stroke-linecap="round" stroke-linejoin="round"/>
</g>
<defs>
<clipPath id="clip0_10025_403">
<rect width="16" height="16" fill="white"/>
</clipPath>
</defs>
</svg>
