
<svg width="24" height="24" viewBox="0 0 24 24" fill="none" xmlns="http://www.w3.org/2000/svg">
<g clip-path="url(#clip0_10025_815)">
<path opacity="0.2" d="M12 12.1022L3.06563 7.21219C3.02266 7.30804 3.0003 7.41184 3 7.51688V16.4831C3.0003 16.6174 3.03666 16.7491 3.10526 16.8646C3.17386 16.98 3.2722 17.0749 3.39 17.1394L11.64 21.6563C11.7502 21.7172 11.874 21.7495 12 21.75V12.1022Z" fill="#36394A"/>
<path d="M3.06567 7.21125L12 12.1013L20.9344 7.21125" stroke="#36394A" stroke-linecap="round" stroke-linejoin="round"/>
<path d="M12 12.1022V21.7472" stroke="#36394A" stroke-linecap="round" stroke-linejoin="round"/>
<path d="M20.61 17.1413L12.36 21.6581C12.2496 21.7185 12.1258 21.7502 12 21.7502C11.8742 21.7502 11.7504 21.7185 11.64 21.6581L3.39 17.1413C3.2722 17.0768 3.17386 16.9819 3.10526 16.8665C3.03666 16.751 3.0003 16.6193 3 16.485V7.51687C3.0003 7.38259 3.03666 7.25085 3.10526 7.13542C3.17386 7.01998 3.2722 6.92508 3.39 6.86062L11.64 2.34375C11.7504 2.28336 11.8742 2.2517 12 2.2517C12.1258 2.2517 12.2496 2.28336 12.36 2.34375L20.61 6.86062C20.7278 6.92508 20.8261 7.01998 20.8947 7.13542C20.9633 7.25085 20.9997 7.38259 21 7.51687V16.4831C21 16.6177 20.9638 16.7499 20.8952 16.8657C20.8266 16.9814 20.7281 17.0766 20.61 17.1413Z" stroke="#36394A" stroke-linecap="round" stroke-linejoin="round"/>
<path d="M7.64624 4.52906L16.5 9.375V14.25" stroke="#36394A" stroke-linecap="round" stroke-linejoin="round"/>
</g>
<defs>
<clipPath id="clip0_10025_815">
<rect width="24" height="24" fill="white"/>
</clipPath>
</defs>
</svg>
