
<svg width="24" height="24" viewBox="0 0 24 24" fill="none" xmlns="http://www.w3.org/2000/svg">
<g clip-path="url(#clip0_10102_4142)">
<path opacity="0.2" d="M19.5 3.75H4.5C4.30109 3.75 4.11032 3.82902 3.96967 3.96967C3.82902 4.11032 3.75 4.30109 3.75 4.5V19.5C3.75 19.6989 3.82902 19.8897 3.96967 20.0303C4.11032 20.171 4.30109 20.25 4.5 20.25H19.5C19.6989 20.25 19.8897 20.171 20.0303 20.0303C20.171 19.8897 20.25 19.6989 20.25 19.5V4.5C20.25 4.30109 20.171 4.11032 20.0303 3.96967C19.8897 3.82902 19.6989 3.75 19.5 3.75ZM5.41687 20.25C5.75684 18.7584 6.59341 17.4265 7.78948 16.4727C8.98554 15.5188 10.4702 14.9996 12 15C11.2583 15 10.5333 14.7801 9.91661 14.368C9.29993 13.956 8.81928 13.3703 8.53545 12.6851C8.25162 11.9998 8.17736 11.2458 8.32205 10.5184C8.46675 9.79098 8.8239 9.1228 9.34835 8.59835C9.8728 8.0739 10.541 7.71675 11.2684 7.57205C11.9958 7.42736 12.7498 7.50162 13.4351 7.78545C14.1203 8.06928 14.706 8.54993 15.118 9.16661C15.5301 9.7833 15.75 10.5083 15.75 11.25C15.75 12.2446 15.3549 13.1984 14.6517 13.9017C13.9484 14.6049 12.9946 15 12 15C13.5298 14.9996 15.0145 15.5188 16.2105 16.4727C17.4066 17.4265 18.2432 18.7584 18.5831 20.25H5.41687Z" fill="#36394A"/>
<path d="M12 15C14.0711 15 15.75 13.3211 15.75 11.25C15.75 9.17893 14.0711 7.5 12 7.5C9.92893 7.5 8.25 9.17893 8.25 11.25C8.25 13.3211 9.92893 15 12 15Z" stroke="#36394A" stroke-width="1.5" stroke-linecap="round" stroke-linejoin="round"/>
<path d="M19.5 3.75H4.5C4.08579 3.75 3.75 4.08579 3.75 4.5V19.5C3.75 19.9142 4.08579 20.25 4.5 20.25H19.5C19.9142 20.25 20.25 19.9142 20.25 19.5V4.5C20.25 4.08579 19.9142 3.75 19.5 3.75Z" stroke="#36394A" stroke-width="1.5" stroke-linecap="round" stroke-linejoin="round"/>
<path d="M5.41687 20.2501C5.7552 18.7569 6.59106 17.4232 7.78728 16.4677C8.9835 15.5122 10.469 14.9917 12 14.9917C13.531 14.9917 15.0165 15.5122 16.2127 16.4677C17.4089 17.4232 18.2448 18.7569 18.5831 20.2501" stroke="#36394A" stroke-width="1.5" stroke-linecap="round" stroke-linejoin="round"/>
</g>
<defs>
<clipPath id="clip0_10102_4142">
<rect width="24" height="24" fill="white"/>
</clipPath>
</defs>
</svg>
